<svg width="250" height="56" fill="none" xmlns="http://www.w3.org/2000/svg"><path d="M4 48a4 4 0 110 8 4 4 0 010-8zm64 0a4 4 0 110 8 4 4 0 010-8zM4 16a4 4 0 110 8 4 4 0 010-8zm64 0a4 4 0 110 8 4 4 0 010-8zm-32 0a4 4 0 110 8 4 4 0 010-8zm64 0a4 4 0 110 8 4 4 0 010-8zM36 48a4 4 0 110 8 4 4 0 010-8zm64 0a4 4 0 110 8 4 4 0 010-8zm-80 0a4 4 0 110 8 4 4 0 010-8zm64 0a4 4 0 110 8 4 4 0 010-8zM20 16a4 4 0 110 8 4 4 0 010-8zm64 0a4 4 0 110 8 4 4 0 010-8zm-32 0a4 4 0 110 8 4 4 0 010-8zm64 0a4 4 0 110 8 4 4 0 010-8zM52 48a4 4 0 110 8 4 4 0 010-8zm64 0a4 4 0 110 8 4 4 0 010-8zM4 32a4 4 0 110 8 4 4 0 010-8zm64 0a4 4 0 110 8 4 4 0 010-8zM4 0a4 4 0 110 8 4 4 0 010-8zm64 0a4 4 0 110 8 4 4 0 010-8zM36 0a4 4 0 110 8 4 4 0 010-8zm64 0a4 4 0 110 8 4 4 0 010-8zM36 32a4 4 0 110 8 4 4 0 010-8zm64 0a4 4 0 110 8 4 4 0 010-8zm-80 0a4 4 0 110 8 4 4 0 010-8zm64 0a4 4 0 110 8 4 4 0 010-8zM20 0a4 4 0 110 8 4 4 0 010-8zm64 0a4 4 0 110 8 4 4 0 010-8zM52 0a4 4 0 110 8 4 4 0 010-8zm64 0a4 4 0 110 8 4 4 0 010-8zM52 32a4 4 0 110 8 4 4 0 010-8zm64 0a4 4 0 110 8 4 4 0 010-8zm18 16a4 4 0 110 8 4 4 0 010-8zm64 0a4 4 0 110 8 4 4 0 010-8zm-64-32a4 4 0 110 8 4 4 0 010-8zm64 0a4 4 0 110 8 4 4 0 010-8zm-32 0a4 4 0 110 8 4 4 0 010-8zm64 0a4 4 0 110 8 4 4 0 010-8zm-64 32a4 4 0 110 8 4 4 0 010-8zm64 0a4 4 0 110 8 4 4 0 010-8zm-80 0a4 4 0 110 8 4 4 0 010-8zm64 0a4 4 0 110 8 4 4 0 010-8zm-64-32a4 4 0 110 8 4 4 0 010-8zm64 0a4 4 0 110 8 4 4 0 010-8zm-32 0a4 4 0 110 8 4 4 0 010-8zm64 0a4 4 0 110 8 4 4 0 010-8zm-64 32a4 4 0 110 8 4 4 0 010-8zm64 0a4 4 0 110 8 4 4 0 010-8zM134 32a4 4 0 110 8 4 4 0 010-8zm64 0a4 4 0 110 8 4 4 0 010-8zM134 0a4 4 0 110 8 4 4 0 010-8zm64 0a4 4 0 110 8 4 4 0 010-8zm-32 0a4 4 0 110 8 4 4 0 010-8zm64 0a4 4 0 110 8 4 4 0 010-8zm-64 32a4 4 0 110 8 4 4 0 010-8zm64 0a4 4 0 110 8 4 4 0 010-8zm-80 0a4 4 0 110 8 4 4 0 010-8zm64 0a4 4 0 110 8 4 4 0 010-8zM150 0a4 4 0 110 8 4 4 0 010-8zm64 0a4 4 0 110 8 4 4 0 010-8zm-32 0a4 4 0 110 8 4 4 0 010-8zm64 0a4 4 0 110 8 4 4 0 010-8zm-64 32a4 4 0 110 8 4 4 0 010-8zm64 0a4 4 0 110 8 4 4 0 010-8z" fill="#275062" fill-opacity=".1"/></svg>