<svg width="2137" height="1256" fill="none" xmlns="http://www.w3.org/2000/svg"><path d="M378.66 1001.65H252.298V875.268H126.597v126.382H.274v125.72h126.323v126.34h125.701v-126.34H378.66v-125.72z" fill="#007C97" fill-opacity=".06" opacity=".44"/><path d="M1240.69 848.445h-30.2v-30.166h-30.05v30.166h-30.2v30.05h30.2V908.7h30.05v-30.205h30.2v-30.05z" fill="#007C97" fill-opacity=".06" opacity=".58"/><path d="M1931.66 24.51h-23.98V.488h-23.91V24.51h-24.02v23.868h24.02v24.024h23.91V48.38h23.98V24.511z" fill="#007C97" fill-opacity=".06" opacity=".44"/><path d="M576.19 1195.51h-16.674v-16.67h-16.558v16.67h-16.636v16.56h16.636v16.64h16.558v-16.64h16.674v-16.56z" fill="#007C97" fill-opacity=".06" opacity=".21"/><path d="M940.857 628.457H852.78v-88.088h-87.61v88.088h-88.076v87.661h88.076v88.088h87.61v-88.088h88.077v-87.661z" fill="#007C97" fill-opacity=".06" opacity=".88"/><path d="M1500.6 491.465h-65.02V426.39h-64.72v65.075h-65.03v64.687h65.03v65.036h64.72v-65.036h65.02v-64.687z" fill="#007C97" fill-opacity=".06" opacity=".25"/><path d="M1864.49 650.615h-120.76V529.873h-120.15v120.742h-120.76v120.16h120.76v120.781h120.15V770.775h120.76v-120.16z" fill="#007C97" fill-opacity=".06" opacity=".98"/><path d="M1479.54 232.448h-22v-22.003h-21.92v22.003h-22.04v21.925h22.04v22.041h21.92v-22.041h22v-21.925z" fill="#007C97" fill-opacity=".06" opacity=".96"/><path d="M1053.07 739.015h-48.2v-48.204h-47.961v48.204h-48.198v47.97h48.198v48.204h47.961v-48.204h48.2v-47.97z" fill="#007C97" fill-opacity=".06" opacity=".21"/><path d="M793.66 1223.35h-16.363v-16.37h-16.286v16.37h-16.364v16.28h16.364V1256h16.286v-16.37h16.363v-16.28z" fill="#007C97" fill-opacity=".06" opacity=".24"/><path d="M364.162 825.665h-19.278v-19.321h-19.202v19.321h-19.317v19.204h19.317v19.32h19.202v-19.32h19.278v-19.204z" fill="#007C97" fill-opacity=".06" opacity=".8"/><path d="M452.432 680.548h-21.533v-21.536h-21.417v21.536h-21.533v21.42h21.533v21.536h21.417v-21.536h21.533v-21.42z" fill="#007C97" fill-opacity=".06" opacity=".27"/><path d="M1377.55 986.759h-108.53V878.222h-107.97v108.537h-108.52v107.951h108.52v108.54h107.97v-108.54h108.53V986.759z" fill="#007C97" fill-opacity=".06" opacity=".9"/><path d="M684.012 546.938H660.73v-23.246h-23.127v23.246h-23.282v23.13h23.282v23.286h23.127v-23.286h23.282v-23.13z" fill="#007C97" fill-opacity=".06" opacity=".26"/><path d="M876.917 759.696H737.224V619.983H598.229v139.713H458.535v139.013h139.694v139.711h138.995V898.709h139.693V759.696z" fill="#007C97" fill-opacity=".06" opacity=".39"/><path d="M1524.27 696.409h-59.97v-59.983h-59.66v59.983h-59.98v59.671h59.98v59.944h59.66V756.08h59.97v-59.671z" fill="#007C97" fill-opacity=".06" opacity=".59"/><path d="M971.835 428.917h-17.88v-17.882h-17.763v17.882h-17.88v17.765h17.88v17.843h17.763v-17.843h17.88v-17.765z" fill="#007C97" fill-opacity=".06" opacity=".87"/><path d="M1089.65 1029.95h-81.94v-81.949h-81.508v81.949h-81.935v81.56h81.935v81.94h81.508v-81.94h81.94v-81.56z" fill="#007C97" fill-opacity=".06" opacity=".32"/><path d="M932.966 962.579H816.243V845.841H700.104v116.738H583.381v116.151h116.723v116.74h116.139v-116.74h116.723V962.579z" fill="#007C97" fill-opacity=".06" opacity=".3"/><path d="M1717.3 75.358h-22.16V53.16h-22.08v22.197h-22.19v22.041h22.19v22.197h22.08V97.399h22.16V75.358z" fill="#007C97" fill-opacity=".06" opacity=".51"/><path d="M1850.07 209.745h-27.52v-27.522h-27.36v27.522h-27.52v27.368h27.52v27.522h27.36v-27.522h27.52v-27.368z" fill="#007C97" fill-opacity=".06" opacity=".31"/><path d="M237.45 778.588h-20.212v-20.253h-20.095v20.253h-20.212v20.098h20.212v20.215h20.095v-20.215h20.212v-20.098z" fill="#007C97" fill-opacity=".06" opacity=".4"/><path d="M1337.74 330.216h-84.11v-84.123h-83.68v84.123h-84.11v83.696h84.11v84.123h83.68v-84.123h84.11v-83.696z" fill="#007C97" fill-opacity=".06" opacity=".66"/><path d="M2015.07 555.335h-75.76v-75.726h-75.32v75.726h-75.72v75.338h75.72v75.765h75.32v-75.765h75.76v-75.338z" fill="#007C97" fill-opacity=".06" opacity=".45"/><path d="M2137 326.95h-116.88V210.056h-116.25V326.95h-116.88v116.272h116.88v116.895h116.25V443.222H2137V326.95z" fill="#007C97" fill-opacity=".06" opacity=".88"/><path d="M1546.74 887.98h-43.73v-43.733h-43.49v43.733h-43.73v43.5h43.73v43.733h43.49V931.48h43.73v-43.5z" fill="#007C97" fill-opacity=".06" opacity=".28"/><path d="M538.177 922.811h-78.126v-78.137h-77.776v78.137H304.11v77.789h78.165v78.13h77.776v-78.13h78.126v-77.789z" fill="#007C97" fill-opacity=".06" opacity=".91"/><path d="M2077.45 662.861h-16.2v-16.25h-16.17v16.25h-16.25v16.171h16.25v16.211h16.17v-16.211h16.2v-16.171z" fill="#007C97" fill-opacity=".06" opacity=".93"/><path d="M1777.27 373.482h-100.01V273.46h-99.54v100.022h-100.01V473h100.01v100.062h99.54V473h100.01v-99.518z" fill="#007C97" fill-opacity=".06" opacity=".53"/><path d="M1363.55 557.318h-132.46V424.796h-131.84v132.522H966.781v131.821h132.469v132.522h131.84V689.139h132.46V557.318z" fill="#007C97" fill-opacity=".06" opacity=".89"/></svg>