<svg width="1920" height="774" fill="none" xmlns="http://www.w3.org/2000/svg"><g filter="url(#filter0_b)"><path fill="url(#paint0_linear)" d="M0-1h1920v775H0z"/></g><path opacity=".44" d="M1484.34 659.161h126.36v-126.38h125.7v126.38h126.33v125.718H1736.4V911.22h-125.7V784.879h-126.36V659.161z" fill="#fff" fill-opacity=".12"/><path opacity=".58" d="M622.311 505.958h30.201v-30.166h30.045v30.166h30.201v30.05h-30.201v30.205h-30.045v-30.205h-30.201v-30.05z" fill="#fff" fill-opacity=".12"/><path opacity=".88" d="M922.143 285.971h88.077v-88.089h87.61v88.089h88.08v87.66h-88.08v88.089h-87.61v-88.089h-88.077v-87.66z" fill="#fff" fill-opacity=".12"/><path opacity=".25" d="M362.396 148.979h65.028V83.903h64.716v65.076h65.027v64.686H492.14v65.036h-64.716v-65.036h-65.028v-64.686z" fill="#fff" fill-opacity=".12"/><path opacity=".98" d="M-1.492 308.129h120.765V187.386h120.143v120.743h120.765v120.159H239.416V549.07H119.273V428.288H-1.492V308.129z" fill="#fff" fill-opacity=".12"/><path opacity=".9" d="M485.454 644.272h108.522V535.736h107.977v108.536h108.521v107.953H701.953v108.536H593.976V752.225H485.454V644.272z" fill="#fff" fill-opacity=".12"/><path opacity=".26" d="M1178.99 204.452h23.28v-23.247h23.13v23.247h23.28v23.13h-23.28v23.285h-23.13v-23.285h-23.28v-23.13z" fill="#fff" fill-opacity=".12"/><path opacity=".39" d="M986.082 417.209h139.698V277.496h138.99v139.713h139.69v139.013h-139.69v139.714h-138.99V556.222H986.082V417.209z" fill="#fff" fill-opacity=".12"/><path opacity=".87" d="M891.165 86.43h17.88V68.548h17.763V86.43h17.879v17.766h-17.879v17.843h-17.763v-17.843h-17.88V86.43z" fill="#fff" fill-opacity=".12"/><path opacity=".3" d="M930.033 620.093h116.727V503.354h116.14v116.739h116.72v116.155H1162.9v116.739h-116.14V736.248H930.033V620.093z" fill="#fff" fill-opacity=".12"/><path opacity=".4" d="M1625.55 436.102h20.21v-20.253h20.1v20.253h20.21V456.2h-20.21v20.214h-20.1V456.2h-20.21v-20.098z" fill="#fff" fill-opacity=".12"/><path opacity=".66" d="M525.255-12.27h84.112v-84.124h83.684v84.123h84.112v83.696h-84.112v84.123h-83.684V71.425h-84.112v-83.696z" fill="#fff" fill-opacity=".12"/><path opacity=".45" d="M-152.069 212.848h75.755v-75.726H-.987v75.726H74.73v75.338H-.986v75.766h-75.327v-75.766h-75.755v-75.338z" fill="#fff" fill-opacity=".12"/><path opacity=".28" d="M316.26 545.493h43.727V501.76h43.494v43.733h43.727v43.5h-43.727v43.733h-43.494v-43.733H316.26v-43.5z" fill="#fff" fill-opacity=".12"/><path opacity=".91" d="M1324.82 580.324h78.13v-78.136h77.77v78.136h78.17v77.787h-78.17v78.137h-77.77v-78.137h-78.13v-77.787z" fill="#fff" fill-opacity=".12"/><path opacity=".53" d="M85.729 30.996h100.009V-69.027h99.542V30.996h100.01v99.517H285.28v100.062h-99.542V130.513H85.728V30.996z" fill="#fff" fill-opacity=".12"/><defs><linearGradient id="paint0_linear" x1="1920" y1="774" x2="-12.556" y2="400.353" gradientUnits="userSpaceOnUse"><stop stop-color="#5A8C9F"/><stop offset="1" stop-color="#7CB4CA"/></linearGradient><filter id="filter0_b" x="-19" y="-20" width="1958" height="813" filterUnits="userSpaceOnUse" color-interpolation-filters="sRGB"><feFlood flood-opacity="0" result="BackgroundImageFix"/><feGaussianBlur in="BackgroundImage" stdDeviation="9.5"/><feComposite in2="SourceAlpha" operator="in" result="effect1_backgroundBlur"/><feBlend in="SourceGraphic" in2="effect1_backgroundBlur" result="shape"/></filter></defs></svg>